<?xml version="1.0" encoding="UTF-8"?>
<!DOCTYPE svg PUBLIC "-//W3C//DTD SVG 1.1//EN" "http://www.w3.org/Graphics/SVG/1.1/DTD/svg11.dtd">
<!-- Creator: CorelDRAW X6 -->
<svg xmlns="http://www.w3.org/2000/svg" xml:space="preserve" width="165mm" height="81mm" version="1.1" style="shape-rendering:geometricPrecision; text-rendering:geometricPrecision; image-rendering:optimizeQuality; fill-rule:evenodd; clip-rule:evenodd"
viewBox="0 0 1650000 810000"
 xmlns:xlink="http://www.w3.org/1999/xlink">
 <defs>
  <style type="text/css">
   <![CDATA[
    .fil0 {fill:#E7B012}
    .fil1 {fill:#0632AD;fill-rule:nonzero}
   ]]>
  </style>
 </defs>
 <g id="Ebene_x0020_1">
  <metadata id="CorelCorpID_0Corel-Layer"/>
  <g id="_154976176">
   <path class="fil0" d="M1500922 409625l0 -8616c-75,-1419 -193,-2748 -360,-3948l-85 -654 -687 -407c-10799,-6397 -24695,-10128 -38633,-10425 -311,-1835 -1965,-14758 -2226,-16584 13243,-3742 25837,-10914 34685,-20081l497 -493 -105 -614c-639,-5002 -2597,-11802 -4280,-15992l-275 -693 -716 -144c-12044,-3403 -26596,-3331 -39818,0 -917,-1657 -5711,-13494 -6428,-15281 11794,-7201 22077,-17300 28332,-28208l413 -600 -413 -804c-1707,-4163 -5211,-10220 -8269,-14132l-413 -558 -578 0c-12595,-229 -26487,3560 -38778,10168 -1213,-1500 -9094,-11882 -10199,-13392 9483,-9811 16923,-22345 20066,-34699l219 -635 -522 -550c-2840,-3743 -7856,-8958 -11578,-11716l-543 -579 -551 300c-12354,3037 -24895,10368 -34762,19953 -1570,-1206 -12044,-9394 -13448,-10495 6530,-11631 10403,-25280 10403,-37772l0 -1707 -557 -346c-3750,-2949 -9846,-6449 -14200,-8297l-663 -300 -635 321c-10996,6237 -21110,16457 -28137,28243 -1764,-737 -14443,-6043 -16098,-6717 1655,-6586 2646,-13448 2763,-20263 0,-6904 -900,-13554 -2763,-19654l-211 -751 -533 -212c-4318,-1887 -11046,-3725 -16013,-4279l-606 -183 -413 444c-9123,8848 -16288,21368 -20186,34675 -1863,-187 -14898,-1870 -16902,-2318 0,-13575 -3813,-27573 -10393,-38446l-384 -571 -614 -187c-2241,-273 -5050,-414 -7894,-423l-551 0c-2846,8 -5693,149 -8008,423l-681 187 -283 571c-6547,10873 -10294,24871 -10583,38573 -1785,321 -15134,2004 -16993,2191 -3810,-13307 -11032,-25922 -20091,-34735l-557 -483 -773 99c-4801,737 -11638,2575 -15737,4290l-656 172 -89 766c-1852,6159 -2702,12838 -2702,19851 -102,6745 931,13553 2593,20126 -1743,695 -14443,6212 -16157,6854 -7155,-11786 -17392,-22087 -28272,-28243l-737 -321 -469 300c-4424,1792 -10619,5348 -14277,8212l-618 431 0 1831c0,12185 3754,25886 10471,37648 -1447,1101 -11215,8629 -12637,9758 -9754,-9490 -22281,-16877 -34706,-20059l-557 -109 -593 370c-3701,2921 -8763,7892 -11822,11723l-264 543 137 533c3123,12347 10344,24807 19887,34752 -1115,1475 -9321,12573 -10446,13917 -12030,-6664 -25968,-10527 -38612,-10343l-751 0 -448 560c-2741,3747 -6230,9727 -8171,14136l-310 656 310 702c6174,10989 16556,21169 28381,28321 -737,1771 -5623,13563 -6367,15193 -13395,-3287 -27968,-3386 -40019,165l-653 186 -208 607c-1866,4171 -3761,10893 -4339,15920l-127 699 374 441c8950,9015 21544,16240 34745,20027 -212,1764 -1866,14841 -2156,16677 -13931,206 -27940,3927 -38837,10349l-547 300 -49 751c-304,2442 -392,5309 -392,8234 0,2993 88,5949 392,8209l49 751 547 359c10897,6476 24906,10073 38837,10259 194,1860 2156,15310 2304,17177 -13349,3955 -25827,11114 -34699,20161l-441 572 137 765c745,4871 2554,11795 4202,15909l360 551 592 186c12203,3418 26699,3321 40037,0 847,1668 5849,13498 6608,15303 -11734,7035 -22007,17198 -28297,28209l-282 579 282 656c1881,4373 5373,10547 8294,14414l431 427 666 0c12492,317 26568,-3584 38612,-10337 1157,1590 9331,12182 10417,13657 -9479,9735 -16771,22270 -20009,34547l-177 642 406 659c3009,3796 7800,8633 11522,11639l667 434 628 -195c12174,-3118 24775,-10304 34671,-19843 1481,1111 12283,9317 13716,10432 -6488,11976 -10273,25667 -10273,38103l0 1302 469 468c3852,2890 9804,6305 14326,8326l695 184 579 -324c10915,-6069 21255,-16472 28416,-28448 1672,751 13250,5443 14958,6180 -1708,6558 -2660,13286 -2660,20002 0,6855 952,13772 2804,19939l219 558 526 258c4381,1809 10908,3725 15875,4455l751 113 483 -463c9067,-8963 16267,-21497 19925,-34582 1859,123 15247,2032 17142,2219 303,13808 4113,27810 10474,38661l427 572 592 95c4809,669 11878,669 16288,0l751 -95 353 -572c6573,-10851 10361,-24853 10584,-38661 1792,-374 14495,-2096 16157,-2219 3746,13166 10879,25771 20196,34629l413 518 744 -102c4823,-843 11748,-2558 15847,-4265l660 -360 92 -614c1672,-6188 2857,-13035 2857,-19883 -190,-6780 -1185,-13645 -2857,-20203 1672,-737 13938,-5986 15645,-6738 7084,11776 17449,22048 28265,28346l730 239 441 -183c4410,-1806 10591,-5384 14305,-8378l752 -423 0 -1708c0,-12284 -3923,-25881 -10372,-37695 1496,-1117 11575,-8991 13035,-10096 9874,9542 22574,16813 34590,20017l917 179 441 -380c3715,-3003 8841,-8012 11624,-11794l357 -448 -191 -642c-2949,-12354 -10227,-24881 -19815,-34759 1100,-1450 9232,-12192 10339,-13646 12175,6780 26120,10489 38612,10344l773 0 324 -565c3059,-3750 6477,-9991 8297,-14305l191 -634 -303 -604c-5814,-10841 -16151,-20996 -27835,-28382 494,-1709 5430,-13457 6061,-15110 13342,3300 27757,3431 39991,-90l635 -103 222 -682c1955,-4334 3719,-11011 4410,-15985l0 -579 -360 -565c-8819,-9116 -21470,-16247 -34519,-20009 261,-1778 1778,-14422 2113,-16192 13995,-386 27947,-4045 38746,-10473l687 -352 85 -640c167,-1207 285,-2569 360,-4008zm-120520 103087l3768 5963 3454 6008 4649 -6008 1214 -1497 -13085 -4466zm-186619 55221c-194,-896 -554,-1615 -1654,-2117l-8019 -2956 -1813 5073 -642 1852 -53 117 7309 2737c2004,886 3941,-896 4636,-2854 236,-536 441,-1206 236,-1852zm62727 21311l-2480 -6113 -2508 -6615 -2176 6615 -2145 6520 9309 -407zm86872 -26067c0,-1915 -490,-3623 -1401,-5276 -2649,-4936 -8935,-6528 -13832,-3715 -3454,1852 -5218,5368 -5218,8991 110,1655 512,3507 1489,5070 275,491 607,1002 1101,1538 3076,3672 8498,4527 12665,2103 1146,-568 2060,-1310 2797,-2103 1531,-1852 2399,-4336 2399,-6608zm68626 -62452l-23358 -12864 -2991 5381 28032 15646 10802 -19360 -4816 -2577 -7669 13774zm-308589 -16048l-27478 16048c984,1922 2046,4180 3249,6037l27535 -16090c-1345,-2426 -2103,-3721 -3306,-5995zm17632 25626l-14884 12863 7585 -22049c-1344,-1888 -1962,-3204 -3369,-4940l-26677 18102c1192,1789 2653,3443 3919,5296l16041 -11113 -7525 22214c1302,1468 2618,3715 4459,5211l24681 -21167c-1366,-1464 -3020,-2766 -4230,-4417zm16316 24363l-16937 20098 -5278 -4576 17516 -19512c-2777,-2571 -4893,-4887 -7581,-7277l3901 -3913c6668,6303 12538,11190 19897,17117l-3376 4311c-2681,-2099 -5443,-4121 -8142,-6248zm19896 15060c4336,2357 8573,4819 13314,7063l2844 -4706c-6565,-3391 -12725,-7268 -18246,-11099l-18112 26582c6869,4548 13145,8343 20200,12418l2921 -4695 -14605 -8605 4932 -6933 9673 5818 2819 -4522c-3108,-1708 -6346,-3680 -9736,-5754l3996 -5567zm42528 18207l0 1743c-491,4265 -3383,8596 -8075,9140l1086 14898c-2176,-497 -4635,-1221 -6956,-2205l-251 -14015 -6297 -2693 -5105 12369c-2067,-685 -4127,-1345 -6145,-2335l6470 -15050 772 -1852 5264 -12418 14337 5532c3189,1139 4656,3975 4900,6886zm27513 314l-2325 19445 -9341 -21326c-2191,-426 -3556,-991 -5761,-1344l-7331 31447c2268,607 4445,850 6780,1256l3927 -19315 9468 21520c2149,324 4583,999 7084,935l3507 -32480c-1842,-102 -4025,194 -6008,-138zm33394 14884l6925 16799c-2265,94 -4374,324 -6399,558l-2138 -5430 -13847 385 -1587 5680c-2212,-194 -4276,-258 -6474,-258l5973 -17734 4251 -13455 208 -427 7059 -317 360 853 5669 13346zm30568 -19721c-9310,2039 -16475,3736 -25710,5169l857 5362c3415,-540 6537,-945 10142,-1401l4657 25831 6854 -1295 -5559 -25756c3527,-875 6773,-1764 10280,-2582l-1521 -5328zm7578 -2698l10590 30233c2060,-717 4272,-1344 6361,-2255l-10273 -30095c-2819,959 -4114,1344 -6678,2117zm48140 -5493c1358,2384 2021,5140 2131,7958 0,2198 -470,4453 -1380,6499 -1488,2963 -3686,5613 -6752,7383 -7468,4365 -17127,1757 -21660,-5922 -159,-441 -360,-925 -664,-1461 -910,-2046 -1351,-4301 -1541,-6499 190,-5658 2949,-10880 8018,-13815 7585,-4299 17378,-1728 21848,5857zm11751 -30043l13229 14263 -22207 -6551c-1849,1404 -3087,1895 -4720,3320l19325 25978c1647,-1284 3355,-2847 4900,-4163l-11727 -15628 22427 6752c1545,-1336 3742,-2843 5256,-4744l-22370 -23654c-1192,1295 -2571,2996 -4113,4427zm18052 -19744l31802 10445c-744,942 -1337,1845 -2010,2798 -551,716 -1214,1439 -1655,2370l-5567 -2006 -8682 10843 3172 4971c-1298,1475 -2759,3073 -4410,4706l-12598 -20884 -4656 -7698 4604 -5545zm-118872 -275686c3474,166 6699,554 9951,1013l-1711 -6657 -2148 -6862 -3224 6862 -2868 5644zm-71533 2963c427,5666 5450,9797 10901,9331 5379,-554 9398,-4850 9398,-10262 194,-268 0,-579 0,-931 -470,-5694 -5370,-9691 -11046,-9155 -5394,399 -9454,4671 -9253,10086l0 931zm109079 -2963l7158 2311c1957,561 4547,-2509 4547,-5179 0,-1274 -441,-2402 -2149,-2776 -2645,-1023 -4459,-1475 -7344,-2205l-1475 4981 -737 2868zm-143295 10612l882 1502 3238 5599 6717 -3528c628,-314 984,-1100 1104,-2071 131,-3033 -2060,-7140 -5245,-5224 -2480,1298 -3990,2191 -6696,3722zm28388 -7084l0 -1496c-166,-8234 6145,-15011 14439,-15674 8767,-854 16552,5588 17290,14401l0 1273c0,8223 -6209,15254 -14644,16027 -8516,751 -16341,-5662 -17085,-14531zm72069 7309c-2671,-28 -3905,-28 -6523,-28l7930 -16453 7194 -14951 7136 737 3750 14214 5183 19099c-2399,-448 -4265,-811 -6534,-942l-1845 -5987c-4713,-730 -8971,-959 -13342,-1146l-2949 5457zm38449 5878c-2565,-745 -4459,-1062 -7278,-1867l5197 -17716 3796 -12629c5478,1358 10685,3136 15896,4833 2949,906 4526,4243 4829,7796 194,4826 -2205,10068 -7076,11165l1894 14281c-2286,-949 -3976,-1658 -6509,-2653l-1654 -12481 -6110 -1877 -2985 11148zm-145919 -4601l-1771 -3182c4656,-2956 9666,-5521 14495,-8103 5684,-3136 13706,4463 13141,11285 -106,1203 -441,2293 -1153,3401l11624 8456c-2191,1027 -3849,1902 -6463,3041l-10181 -7443 -5617 3009 5980 9888c-2314,1475 -3722,2392 -6428,3969l-13627 -24321zm81068 -26313l2812 26052 6840 -716 -2678 -25862 10347 -635 -391 -5807c-11557,667 -16316,1133 -27753,2840l762 5511 10061 -1383zm100020 45681l6917 -13321 18666 -8675c-1965,-1411 -4089,-2395 -6057,-3690l-12859 5856 -2371 -13959c-2684,-1274 -4296,-1835 -7094,-2963l3739 20305 -6925 13159 5984 3288zm-79404 194331c27834,0 50462,-22593 50462,-50422 0,-27830 -22628,-50450 -50462,-50553 -27823,0 -50429,22723 -50429,50553 0,27829 22606,50422 50429,50422zm0 -4919c-25026,0 -45469,-20533 -45469,-45503 0,-25149 20443,-45579 45469,-45579 25189,0 45449,20430 45449,45579 0,25080 -20363,45503 -45449,45503zm126450 4354c2092,1357 4519,3004 6724,2239 1496,-454 2783,-2094 3609,-5050 9867,-33452 9867,-62025 0,-95078 -607,-2074 -1570,-4217 -3306,-4991 -1757,-631 -3968,93 -7133,2239l-64636 43949c-2501,1681 -3775,3975 -3775,6346 0,2356 1274,4650 3775,6304l64742 44042zm-14252 -139871c84,-1336 -738,-3025 -2611,-4867 -24010,-25403 -48673,-39609 -82497,-47652 -1901,-494 -4099,-942 -5567,353 -1513,1213 -1947,3556 -1644,7062l5574 78253c177,2965 1514,5317 3493,6508 2169,1230 4766,1002 7461,-296l70474 -34014c2258,-1095 4830,-2290 5317,-4699 0,-151 84,-344 0,-648zm-224088 1248c296,2356 2977,3557 5320,4657l70382 34193c2798,1337 5401,1337 7525,231 1983,-1296 3267,-3549 3443,-6542l5687 -78079c310,-3775 -222,-5987 -1580,-7144 -1486,-1281 -3691,-921 -5807,-529 -33736,8114 -58318,22369 -82550,47638 -1958,2212 -2868,4073 -2420,5575zm-14133 38502c-2300,-1489 -4748,-3186 -6752,-2297 -1633,492 -2825,2204 -3679,4981 -9783,33572 -9783,62035 0,95170 663,2157 1407,4307 3369,4851 1605,668 3976,0 7062,-2129l64591 -44001c2395,-1612 3855,-3907 3855,-6208 0,-2501 -1460,-4699 -3855,-6383l-64591 -43984zm15152 140036c0,1337 910,3004 2611,4775 24239,25492 48782,39681 82490,47591 2155,655 4272,976 5768,-195 1524,-1135 1958,-3478 1700,-7164 0,-117 -5732,-78245 -5732,-78245 -240,-2963 -1362,-5223 -3437,-6415 -2102,-1233 -4720,-1233 -7531,48l-70309 34224c-2452,1144 -5112,2432 -5479,4733 0,152 -81,448 -81,648zm132204 51036c1192,938 3147,1213 6152,461 33623,-8068 58283,-22317 82317,-47535 1433,-1660 3003,-3369 2537,-5264 -441,-1819 -1986,-3466 -5267,-5009l-70492 -34210c-2674,-1261 -5271,-1261 -7423,-138 -2067,1309 -3333,3528 -3527,6622l-5698 78031c-53,2558 -356,5471 1401,7042zm-148767 -288809l20864 23241c2914,3132 6124,2748 10340,-547 26363,-20683 60187,-32914 96230,-32914 36082,0 69928,12188 96545,32914 4163,3073 7281,3679 10336,547l20878 -23241c2363,-2572 2363,-6110 -2166,-9903 -34996,-27245 -78190,-44062 -125677,-44062 -47206,0 -91017,16817 -125388,44186 -4498,3669 -4297,7207 -1962,9779zm311595 213699l-30071 -10266c-1570,-586 -5676,-586 -7825,4705 -24281,58238 -80810,98090 -146265,98090 -65539,0 -123109,-40770 -146350,-98999 -1728,-4382 -5951,-4382 -7549,-3796l-29905 10266c-3246,1171 -5193,4051 -3492,8206 29372,74957 102414,127874 187296,127874 84857,0 158232,-53281 187703,-128191 1527,-3921 -318,-6718 -3542,-7889zm-372869 -16054l29994 -8709c2811,-827 5125,-3776 4903,-7442 -10770,-55866 2911,-101155 35659,-137461 3313,-2356 3665,-7207 501,-10519l-21805 -21918c-2117,-2424 -5969,-2424 -9275,945 -41790,43986 -62893,111489 -47413,180501 854,3307 3475,5740 7436,4603zm338113 -185404c-2942,-3609 -7824,-3069 -9232,-557l-21731 21830c-3182,3312 -2872,8163 427,10519 32798,36306 46503,81499 35747,137461 -240,3666 2067,6615 4932,7442l30042 8709c4004,1137 6558,-1296 7416,-4720 15458,-68895 -5708,-136626 -47601,-180684zm-148840 166215c-16404,0 -30050,-13643 -30050,-30265 0,-13171 8544,-24726 21216,-28571 124,-1364 476,-8220 476,-8220l15262 0c0,0 363,6311 529,7669 13222,3300 22828,15313 22828,29122 0,16622 -13656,30265 -30261,30265z"/>
   <path class="fil1" d="M784100 342471c-14545,868 -28865,9180 -37786,15509l0 -8957c0,-3032 -2452,-5454 -5486,-5454l-21985 0c-3031,0 -5486,2422 -5486,5454l0 133201c0,3032 2455,5471 5486,5471l21985 0c3034,0 5486,-2439 5486,-5471l0 -92062c4967,-4134 20320,-15659 38618,-17271 2812,-248 4989,-2612 4989,-5450l0 -19520c0,-1516 -604,-2943 -1736,-3962 -1080,-1061 -2590,-1626 -4085,-1488zm-171588 82799c-12926,1220 -19071,7124 -19071,18507 0,6994 1930,18810 14746,18810 15212,0 35885,-5746 36103,-5808l0 -33197 -31778 1688zm64714 -36374l0 95574c0,1592 -695,3101 -1874,4128 -1220,1047 -2811,1516 -4356,1295 -11187,-1571 -16507,-5071 -21799,-9129 -222,89 -24969,10080 -47074,10080 -26624,0 -41893,-16805 -41893,-46171 0,-28677 13974,-41369 48260,-43928l35800 -2877 0 -8689c0,-10997 -6530,-17322 -17914,-17322 -15681,0 -38061,1844 -49995,2908 -1489,158 -3003,-320 -4135,-1316 -1101,-965 -1792,-2401 -1845,-3882l-716 -18277c-113,-2784 1873,-5202 4600,-5616 10668,-1701 37236,-5574 53827,-5574 33514,0 49114,15520 49114,48796zm-457318 -68718l-12042 0c-13449,0 -21112,1002 -24991,1787l0 56934c6427,448 18788,1106 35436,923 21470,-220 34787,-11623 34787,-29717 0,-14470 -8714,-29927 -33190,-29927zm69269 159835c737,1688 572,3631 -414,5195 -1026,1564 -2737,2487 -4602,2487l-25549 0c-2155,0 -4141,-1282 -4989,-3259l-32720 -73622c-16276,-110 -30402,-978 -38028,-1516l0 72926c0,3032 -2432,5471 -5459,5471l-22846 0c-3040,0 -5492,-2439 -5492,-5471l0 -184674c0,-2791 2095,-5129 4879,-5436 29312,-3313 52758,-3655 61460,-3655 3003,0 4604,21 4604,21 56230,0 68048,33210 68048,61032 0,23241 -11102,40032 -33923,51353l35031 79148zm641377 -134325c-1012,-1343 -2610,-2119 -4325,-2119l-21353 0c-2480,0 -4629,1665 -5292,4055l-28642 108004 -2198 0 -28662 -108004c-642,-2390 -2812,-4055 -5299,-4055l-21325 0c-1708,0 -3306,776 -4353,2119 -1027,1351 -1387,3087 -967,4706l31545 121116c1570,6008 7123,16185 18118,16185l6114 0c-526,2019 -1097,4189 -1704,6049l-282 917c-1708,5581 -4280,14030 -19861,14030l-27294 -1676c-1542,-124 -3052,434 -4128,1535 -1129,1111 -1750,2614 -1665,4162l667 14298c109,2407 1799,4453 4170,5045 8047,1990 23392,4311 36021,4795 607,42 1157,42 1735,42 20589,0 34548,-13328 41589,-39544 8185,-30702 18412,-70211 25873,-99060 3383,-12984 6283,-24178 8386,-32143l4106 -15716c434,-1654 49,-3390 -974,-4741zm-525105 69226c0,-32243 -8763,-44773 -31201,-44773 -23254,0 -31499,11707 -31499,44773 0,29972 5014,46192 31499,46192 26075,0 31201,-16936 31201,-46192zm33486 0c0,52503 -19954,75930 -64687,75930 -44950,0 -65001,-23427 -65001,-75930 0,-51739 20051,-74814 65001,-74814 44127,0 64687,23753 64687,74814zm103932 49375l938 18114c138,2701 -1764,5134 -4438,5643 -7655,1413 -18189,3136 -24783,3136 -33207,0 -43322,-12713 -43322,-54316l0 -63555 -12731 0c-3030,0 -5485,-2460 -5485,-5489l0 -18799c0,-3032 2455,-5454 5485,-5454l12731 0 0 -22350c0,-2540 1712,-4745 4157,-5331l21999 -5360c1626,-386 3337,-28 4661,1006 1322,1054 2120,2620 2120,4306l0 27729 33507 0c3041,0 5464,2422 5464,5454l0 18799c0,3029 -2423,5489 -5464,5489l-33507 0 0 58925c0,20388 716,27451 15014,27451 5270,0 13511,-373 17949,-586 2950,-69 5574,2149 5705,5188z"/>
  </g>
 </g>
</svg>
